<svg width="184" height="184" viewBox="0 0 184 184" fill="none" xmlns="http://www.w3.org/2000/svg">
  <g clip-path="url(#clip0_640_2145)">
    <path
      d="M54.2038 12.4011C52.5631 13.2184 50.2777 14.9114 49.0471 16.1957C47.8752 17.5384 46.2344 19.8735 45.414 21.5081C44.5936 23.1427 43.5389 25.9449 43.0701 27.813C42.6013 29.6811 42.1911 33.5924 42.1911 36.6865C42.1911 39.7222 42.6013 43.9254 43.1287 46.027C43.6561 48.1287 45.0624 51.9816 46.3516 54.667C47.758 57.6443 49.8089 60.7384 51.8013 62.7816C53.5006 64.7081 56.5478 67.0432 58.6573 68.2108C62.0561 70.0789 62.8764 70.2541 67.0955 70.2541C70.9631 70.2541 72.3108 70.0205 74.6548 68.7946C76.2369 67.9773 78.4051 66.2843 79.5185 65C80.6318 63.7157 82.1554 61.4973 82.9172 60.0378C83.679 58.5784 84.7338 55.8346 85.3198 53.9081C85.9643 51.5146 86.3159 48.5373 86.3159 44.5676C86.2573 40.5395 85.8471 37.2703 85.0268 34.0595C84.3236 31.4908 82.7414 27.5795 81.5694 25.3611C80.3975 23.0843 77.8777 19.7568 76.0612 17.8886C74.0102 15.8454 71.1975 13.8022 69.0293 12.7514C66.0408 11.3503 64.5758 11 61.2357 11C58.0713 11 56.4892 11.2919 54.2038 12.4011ZM116.318 12.0508C114.971 12.5762 112.92 13.6854 111.631 14.5027C110.4 15.32 108.056 17.5384 106.474 19.4649C104.892 21.3914 102.782 24.4854 101.903 26.3535C100.966 28.1632 99.6178 31.7243 98.9147 34.1762C97.9771 37.5622 97.6841 40.3059 97.6841 44.8595C97.7427 49.5881 98.0357 51.9232 99.0318 55.0757C99.7936 57.2941 100.907 60.0962 101.552 61.2054C102.196 62.3146 103.544 64.1243 104.54 65.1751C105.536 66.2259 107.529 67.8022 108.994 68.6778C111.279 70.0789 112.217 70.2541 116.611 70.2541C121.182 70.2541 121.885 70.0789 125.343 68.2108C127.452 67.0432 130.499 64.7081 132.199 62.7816C134.015 60.9135 136.242 57.5859 137.414 55.1924C138.527 52.9157 139.934 48.8876 140.637 46.3189C141.399 43.2832 141.809 39.8389 141.809 36.3946C141.809 33.5341 141.399 29.5643 140.871 27.6378C140.344 25.7114 139.289 22.9092 138.527 21.333C137.766 19.8151 136.125 17.5384 134.953 16.1957C133.722 14.9114 131.437 13.2184 129.796 12.4011C127.511 11.2919 125.987 11 122.764 11C120.303 11.0584 117.725 11.467 116.318 12.0508ZM12.0127 58.3449C11.0166 58.6368 9.2 59.6292 7.91083 60.5049C6.62166 61.3805 4.6879 63.4238 3.63312 65C2.57835 66.6346 1.28918 69.2616 0.820386 70.8378C0.351596 72.4724 3.8147e-06 75.9751 3.8147e-06 78.7189C3.8147e-06 81.4627 0.410195 85.2573 0.937583 87.1838C1.46497 89.1103 2.81274 92.4962 3.98472 94.773C5.27389 97.2832 7.61784 100.377 9.96179 102.712C12.3643 105.106 15.1771 107.208 17.5796 108.434C19.9822 109.601 22.7363 110.418 24.9045 110.652C27.4242 110.885 29.2994 110.71 31.6433 110.01C33.4013 109.426 36.0382 108.025 37.4446 106.857C39.2026 105.398 40.6089 103.471 41.8395 100.903C42.7771 98.8011 43.8319 95.2984 44.1834 93.0216C44.6522 89.7524 44.535 87.9427 43.7733 83.973C43.1873 80.9373 41.8981 77.1427 40.4331 74.2238C38.7924 70.8378 36.9758 68.2692 34.4561 65.7005C31.9949 63.2486 29.358 61.3222 26.6624 59.9795C23.2637 58.3449 21.8573 57.9946 18.1656 57.8778C15.7631 57.8195 13.0089 57.9946 12.0127 58.3449ZM159.389 59.0454C157.631 59.8043 154.994 61.147 153.529 62.1395C152.064 63.1319 149.778 65.2335 148.372 66.8097C147.024 68.3859 144.856 71.6551 143.625 74.0487C142.336 76.4422 140.871 80.5286 140.344 83.0973C139.641 86.3081 139.406 89.0519 139.641 91.8541C139.817 94.1308 140.52 97.5168 141.282 99.4432C142.161 101.837 143.567 103.88 145.559 105.923C147.903 108.258 149.31 109.134 152.064 109.951C154.349 110.594 156.693 110.885 158.803 110.71C160.736 110.535 163.666 109.659 166.127 108.55C169.057 107.208 171.343 105.515 174.097 102.771C176.734 100.085 178.609 97.4584 180.074 94.4811C181.246 92.0876 182.652 88.5265 183.121 86.6C183.59 84.6735 184 81.1124 184 78.7189C184 76.3254 183.59 72.8811 183.121 71.1297C182.652 69.3784 181.597 66.8681 180.836 65.5838C180.074 64.2995 178.433 62.4314 177.203 61.3805C175.972 60.3881 173.745 59.1038 172.28 58.6368C170.815 58.1114 168.061 57.7027 166.127 57.7027C163.842 57.7027 161.44 58.2281 159.389 59.0454ZM84.3822 74.0487C82.6242 74.6908 80.1045 75.8584 78.8153 76.6173C77.5261 77.3762 75.065 79.4195 73.307 81.1124C71.549 82.8638 67.9159 87.7092 65.1618 91.8541C62.4076 95.9989 58.9503 101.019 57.4854 102.946C56.079 104.872 51.5083 109.893 47.4064 114.038C43.3631 118.183 38.7338 123.612 37.1516 126.005C35.5694 128.399 33.5185 132.602 32.5809 135.346C31.1745 139.432 30.8815 141.301 30.8229 146.146C30.8229 150.875 31.0573 152.743 32.2293 156.07C32.9911 158.347 34.7491 161.616 36.0382 163.368C37.386 165.119 39.7299 167.512 41.3707 168.738C42.9529 169.906 45.414 171.307 46.879 171.949C48.9885 172.766 51.0395 173 57.1338 173C64.2828 173 65.3376 172.825 73.5414 170.548C78.4051 169.205 83.9134 167.804 85.8471 167.454C87.7809 167.162 90.5936 166.87 92.1758 166.87C93.6994 166.87 96.9809 167.279 99.5006 167.804C101.962 168.33 107.47 169.672 111.631 170.84C118.604 172.766 119.893 173 126.866 173C134.191 173 134.66 172.942 138.293 171.19C140.578 170.081 143.332 168.155 145.266 166.228C147.141 164.36 149.192 161.441 150.364 158.989C151.478 156.654 152.591 153.151 152.943 150.816C153.411 147.956 153.411 145.445 152.943 142.526C152.65 140.191 151.947 137.039 151.419 135.521C150.892 133.945 149.778 131.435 148.958 129.8C148.196 128.224 146.731 125.714 145.735 124.254C144.739 122.795 140.637 118.183 136.535 114.038C132.492 109.893 127.921 104.872 126.515 102.946C125.05 101.019 121.475 95.8822 118.545 91.5622C115.439 87.0087 111.748 82.28 109.638 80.3535C107.587 78.3687 104.423 76.2087 102.138 75.0995C98.7389 73.5232 97.3325 73.2314 92.879 73.0562C88.6599 72.8811 86.9605 73.1146 84.3822 74.0487Z"
      fill="#010101" />
  </g>
  <defs>
    <clipPath id="clip0_640_2145">
      <rect width="184" height="184" fill="white" />
    </clipPath>
  </defs>
</svg>
