<svg width="109" height="84" viewBox="0 0 109 84" fill="none" xmlns="http://www.w3.org/2000/svg">
<path fill-rule="evenodd" clip-rule="evenodd" d="M101.391 0.00358514C102.385 -0.0342527 103.451 0.230612 104.04 0.646828C104.555 0.987369 105.327 1.70629 105.731 2.23602C106.099 2.76575 106.872 4.09007 107.423 5.18737C108.012 6.43602 108.38 7.76034 108.38 8.85764C108.38 10.3333 108.196 10.7117 107.092 11.6955C106.394 12.3009 105.253 13.0576 104.591 13.3603C103.966 13.6252 101.502 14.3063 99.1847 14.836C96.8676 15.3657 93.4471 16.3495 91.6449 17.0306C89.8059 17.7495 86.9371 19.1874 85.282 20.209C83.5901 21.2684 81.1994 23.0468 77.6686 26.3387L78.5513 28.382C79.0294 29.5171 79.7283 32.0522 80.0961 34.0198C80.4639 35.9874 80.942 40.0739 81.604 48.5874L86.0544 57.2901L86.0176 60.6955C86.0176 63.0036 85.7601 64.8955 85.2452 66.5603C84.8406 67.9225 83.8844 70.0414 83.0752 71.2901C82.3028 72.5387 80.942 74.2414 80.0225 75.036C79.1398 75.8684 77.3744 77.0414 76.1238 77.609C74.8366 78.1766 72.4459 79.0847 70.7908 79.5766C69.0989 80.0684 65.6784 80.8252 63.1406 81.2793C60.6028 81.7333 57.9915 82.0738 57.3662 82.0738C56.5203 82.0738 55.9686 81.809 55.6008 81.2036C55.1594 80.5603 55.1227 80.1441 55.4169 79.3117C55.6376 78.7063 56.1157 78.2144 56.6306 78.1387C57.072 78.0252 59.1684 77.6847 61.3016 77.3441C63.4349 76.9657 66.745 76.2847 68.6576 75.7549C70.5701 75.263 73.1079 74.3928 74.3216 73.8252C75.6089 73.2198 77.1169 72.0847 78.0732 70.9874C78.9559 70.0036 80.096 68.3009 80.5742 67.2036C81.0891 66.1441 81.6408 64.1766 81.8615 62.8522C82.1557 61.1495 82.1557 60.0522 81.8615 58.8793C81.6408 58.009 80.5742 55.5874 79.5076 53.5063C77.6318 49.836 77.5583 49.609 77.3376 45.7495C77.1905 43.5549 76.8962 40.4144 76.7123 38.7495C76.4916 37.0847 76.0871 34.6252 75.7561 33.263C75.4618 31.9009 74.9101 30.1982 74.5423 29.4793C74.2113 28.7603 72.7401 27.0576 71.3057 25.6955C69.8713 24.3333 67.6277 22.5928 66.3772 21.7982C65.09 21.0036 62.9935 20.0198 61.6694 19.6036C60.0511 19.0739 57.8444 18.7333 54.8652 18.6198C51.4447 18.4306 49.7896 18.5441 47.5093 19.0739C45.891 19.4144 43.4267 20.2847 41.9923 20.9279C40.4108 21.6847 38.4983 23.009 37.0639 24.409C35.0042 26.3387 34.4157 27.2468 32.5767 31.182C31.4366 33.6793 29.855 37.4252 29.1194 39.5063C28.3471 41.6252 27.5011 44.8793 27.2069 46.8847C26.9495 48.8522 26.5449 51.0847 26.361 51.8036C26.1771 52.5225 25.2576 54.3009 24.3381 55.7766C23.4186 57.2522 22.4623 59.0306 22.2417 59.7495C21.9842 60.4684 21.7635 62.3603 21.7635 63.9117C21.7635 66.182 21.9474 67.1279 22.683 68.6414C23.1979 69.7009 24.5956 71.5549 25.8093 72.8414C27.3908 74.4684 28.531 75.3009 29.855 75.7928C30.8849 76.1333 33.4227 76.663 35.5559 76.9657C37.6891 77.3063 40.8889 77.9495 42.7279 78.4414C44.5669 78.9333 46.6633 79.6144 47.4357 79.9549C48.392 80.3711 48.8701 80.863 49.0172 81.6198C49.1644 82.3387 49.0172 82.8306 48.5391 83.3225C48.1713 83.7009 47.4725 83.9657 46.9576 83.9657C46.4427 83.9657 44.7876 83.5495 43.2796 83.0576C41.7717 82.5279 38.9396 81.8468 37.0271 81.5441C35.1145 81.2036 32.6135 80.7874 31.5101 80.5982C30.4067 80.409 28.4942 79.8036 27.2805 79.1982C25.9196 78.5549 24.191 77.2684 22.8301 75.8684C21.3957 74.3549 20.1084 72.5766 19.2257 70.7225C18.1591 68.5279 17.7913 67.2793 17.6442 65.236C17.5339 63.7603 17.6442 61.6414 17.8649 60.5063C18.0856 59.3711 18.7108 57.4793 19.2257 56.3441C19.7406 55.209 20.5498 53.8468 20.9911 53.3171C21.4693 52.7874 22.0578 51.7657 22.2784 51.0468C22.4991 50.3279 22.9037 48.0198 23.1979 45.9387C23.4922 43.8576 24.2278 40.7928 24.8162 39.1279C25.4047 37.463 26.7656 34.1333 27.7954 31.7495C28.9356 29.1766 29.6344 27.0955 29.524 26.6414C29.4137 26.2252 28.7149 25.0522 27.9425 23.9928C27.1333 22.9712 25.4415 21.382 24.1542 20.4739C22.8301 19.6036 20.4395 18.4306 18.8211 17.9009C17.2028 17.3712 13.1571 16.5387 9.81013 16.009C4.91844 15.2522 3.48403 14.9117 2.38064 14.1549C1.57149 13.6252 0.725555 12.6036 0.394538 11.809C-0.0835978 10.5982 -0.120377 10.1063 0.247419 8.85764C0.504877 7.94953 1.35081 6.70088 2.30708 5.75494C3.22657 4.80899 5.32301 3.44683 7.16199 2.53872C9.81013 1.2144 10.84 0.911693 13.1203 0.79818C15.4742 0.646828 16.173 0.760342 17.9017 1.55494C19.1154 2.08467 21.0279 3.5225 22.683 5.14953C24.191 6.58737 26.361 9.16034 27.4644 10.7874C28.5678 12.4522 30.1493 15.3279 31.032 17.182C31.8779 19.036 32.6135 20.9657 32.6135 21.4576C32.6135 21.9117 32.6871 22.2901 32.7974 22.2901C32.9078 22.2901 33.864 21.5333 34.9306 20.5874C35.9605 19.6414 38.1672 18.2036 39.7856 17.3712C41.4039 16.5766 43.7945 15.5928 45.1186 15.2144C46.9576 14.7225 48.9069 14.5333 53.394 14.5333C57.8811 14.5333 59.8305 14.6847 61.6694 15.2144C62.9935 15.5928 65.2371 16.463 66.6347 17.1441C68.0323 17.8252 70.2759 19.263 73.9906 22.2522L75.2044 21.0414C75.8664 20.3603 77.5215 17.636 78.8823 14.9495C80.9788 10.7495 81.6776 9.72791 83.7372 7.83602C85.1349 6.54953 87.3784 4.99818 89.0703 4.12791C90.6886 3.29548 93.7413 2.04683 95.8745 1.32791C98.0077 0.608991 100.472 0.00358514 101.391 0.00358514ZM39.7856 44.009C42.4705 44.0847 43.4635 44.2739 44.9347 45.0306C45.9645 45.5603 47.1415 46.5441 47.6196 47.3009C48.1345 48.0955 48.4288 49.1549 48.4288 50.1009C48.4288 50.9333 48.1713 52.5603 47.8403 53.6955C47.5093 54.8306 46.884 56.5333 46.4059 57.4793C45.9645 58.4252 44.9715 59.7495 44.2359 60.4306C43.5003 61.0739 42.3601 61.7549 41.7349 61.8684C40.9993 62.0198 40.0798 61.9063 39.4178 61.6036C38.8293 61.3009 38.0201 60.5441 37.5788 59.863C37.1742 59.2198 36.2547 57.5928 35.5559 56.3063C34.8571 55.0198 33.4962 53.0522 32.54 51.9549C31.5469 50.8198 30.6642 49.4576 30.5539 48.8901C30.4067 48.2468 30.5171 47.4522 30.8113 46.9225C31.1056 46.4306 31.9883 45.6739 32.7974 45.2198C33.6066 44.8036 34.7835 44.3495 35.372 44.1603C35.9605 44.009 37.9466 43.9333 39.7856 44.009ZM68.2898 47.263C68.915 47.263 69.6506 47.5279 69.9449 47.8306C70.3127 48.209 70.4966 49.1928 70.4966 51.0468C70.4966 53.2414 70.3494 53.8468 69.6874 54.6793C69.0622 55.436 68.6208 55.6252 68.0323 55.436C67.5542 55.3225 66.9289 54.6793 66.6347 54.0739C66.3405 53.4684 66.083 52.0306 66.0462 50.9333C66.0094 49.6468 66.2301 48.663 66.6347 48.0955C67.0025 47.5657 67.6277 47.263 68.2898 47.263ZM55.0123 54.4901C55.3433 54.4901 56.5203 55.9657 57.734 57.8955C58.8742 59.7495 59.7201 61.3387 59.6098 61.4522C59.4994 61.5657 57.2559 61.6036 49.9 61.4522L52.1435 57.9711C53.5044 55.8522 54.6445 54.4522 55.0123 54.4901Z" fill="#201918"/>
<path d="M39.8211 47.8308C39.49 48.1335 39.1223 48.8525 39.0119 49.4579C38.8648 50.0254 38.8648 51.2362 38.9751 52.1822C39.1223 53.2417 39.5268 54.2254 40.0417 54.7552C40.7406 55.5119 41.0348 55.5876 41.7336 55.2471C42.175 55.02 42.7267 54.4146 42.9106 53.8849C43.0945 53.3552 43.2784 52.0308 43.2784 50.9335C43.2784 49.7984 43.0577 48.5876 42.7267 48.0957C42.3956 47.6038 41.8072 47.2633 41.2923 47.2633C40.7773 47.2633 40.1153 47.5281 39.8211 47.8308Z" fill="#FBFBFB"/>
</svg>
