<svg width="109" height="84" fill="none" xmlns="http://www.w3.org/2000/svg">
  <path fill-rule="evenodd" clip-rule="evenodd"
    d="M101.391.004c.994-.038 2.06.227 2.649.643.515.34 1.287 1.06 1.691 1.589.368.53 1.141 1.854 1.692 2.951.589 1.249.957 2.573.957 3.67 0 1.476-.184 1.855-1.288 2.838-.698.606-1.839 1.363-2.501 1.665-.625.265-3.089.946-5.406 1.476-2.317.53-5.738 1.513-7.54 2.195-1.84.719-4.708 2.156-6.363 3.178-1.692 1.06-4.083 2.838-7.613 6.13l.882 2.043c.478 1.135 1.177 3.67 1.545 5.638.368 1.967.846 6.054 1.508 14.567l4.45 8.703-.036 3.406c0 2.308-.258 4.2-.773 5.864-.404 1.362-1.36 3.481-2.17 4.73-.772 1.249-2.133 2.951-3.053 3.746-.882.832-2.648 2.005-3.898 2.573-1.287.568-3.678 1.476-5.333 1.968-1.692.491-5.113 1.248-7.65 1.702-2.538.454-5.15.795-5.775.795-.846 0-1.397-.265-1.765-.87-.442-.644-.478-1.06-.184-1.892.22-.606.699-1.098 1.214-1.173.441-.114 2.537-.454 4.67-.795 2.134-.378 5.444-1.06 7.357-1.59 1.912-.491 4.45-1.361 5.664-1.929 1.287-.605 2.795-1.74 3.751-2.838.883-.983 2.023-2.686 2.501-3.783.515-1.06 1.067-3.027 1.288-4.352.294-1.702.294-2.8 0-3.973-.221-.87-1.288-3.292-2.354-5.373-1.876-3.67-1.95-3.897-2.17-7.757a195.903 195.903 0 00-.626-7c-.22-1.664-.625-4.124-.956-5.486-.294-1.362-.846-3.065-1.214-3.784-.33-.719-1.802-2.421-3.236-3.784-1.435-1.362-3.678-3.102-4.929-3.897-1.287-.794-3.383-1.778-4.708-2.194-1.618-.53-3.825-.87-6.804-.984-3.42-.19-5.075-.076-7.356.454-1.618.34-4.082 1.21-5.517 1.854-1.581.757-3.494 2.081-4.928 3.481-2.06 1.93-2.648 2.838-4.487 6.773-1.14 2.497-2.722 6.243-3.458 8.324-.772 2.12-1.618 5.373-1.912 7.379-.258 1.967-.662 4.2-.846 4.919-.184.718-1.103 2.497-2.023 3.973-.92 1.475-1.876 3.254-2.096 3.972-.258.72-.479 2.611-.479 4.163 0 2.27.184 3.216.92 4.73.515 1.059 1.913 2.913 3.126 4.2 1.582 1.626 2.722 2.459 4.046 2.95 1.03.341 3.568.871 5.7 1.174 2.134.34 5.334.984 7.173 1.475 1.839.492 3.935 1.173 4.708 1.514.956.416 1.434.908 1.581 1.665.147.719 0 1.21-.478 1.703-.368.378-1.067.643-1.581.643-.515 0-2.17-.416-3.678-.908-1.508-.53-4.34-1.211-6.253-1.514-1.913-.34-4.413-.757-5.517-.946-1.103-.189-3.016-.794-4.23-1.4-1.36-.643-3.089-1.93-4.45-3.33-1.434-1.513-2.722-3.291-3.604-5.145-1.067-2.195-1.435-3.444-1.582-5.487-.11-1.476 0-3.595.22-4.73.222-1.135.847-3.027 1.362-4.162.515-1.135 1.324-2.497 1.765-3.027.478-.53 1.067-1.551 1.287-2.27.221-.72.626-3.027.92-5.108.294-2.081 1.03-5.146 1.618-6.811.589-1.665 1.95-4.995 2.98-7.378 1.14-2.573 1.838-4.654 1.728-5.109-.11-.416-.81-1.589-1.582-2.648-.809-1.022-2.5-2.611-3.788-3.52-1.324-.87-3.715-2.042-5.333-2.572-1.618-.53-5.664-1.362-9.01-1.892-4.893-.757-6.327-1.097-7.43-1.854-.81-.53-1.655-1.551-1.986-2.346-.479-1.21-.515-1.703-.148-2.951.258-.908 1.104-2.157 2.06-3.103.92-.946 3.016-2.308 4.855-3.216C9.81 1.214 10.84.912 13.12.799c2.354-.152 3.053-.039 4.782.756 1.213.53 3.126 1.968 4.781 3.595 1.508 1.437 3.678 4.01 4.781 5.637 1.104 1.665 2.685 4.54 3.568 6.395.846 1.854 1.582 3.784 1.582 4.276 0 .454.073.832.183.832s1.067-.757 2.134-1.703c1.03-.946 3.236-2.383 4.855-3.216 1.618-.794 4.008-1.778 5.333-2.157 1.839-.492 3.788-.68 8.275-.68s6.437.15 8.275.68c1.325.379 3.568 1.249 4.966 1.93 1.397.681 3.64 2.119 7.356 5.108l1.213-1.21c.662-.682 2.318-3.406 3.678-6.093 2.097-4.2 2.796-5.221 4.855-7.113 1.398-1.286 3.641-2.838 5.333-3.708 1.619-.833 4.671-2.081 6.805-2.8C98.007.609 100.471.004 101.39.004zM39.786 44.009c2.684.076 3.678.265 5.149 1.022 1.03.53 2.206 1.513 2.685 2.27.515.794.809 1.854.809 2.8 0 .832-.258 2.46-.589 3.595-.33 1.135-.956 2.837-1.434 3.783-.441.946-1.434 2.27-2.17 2.952-.736.643-1.876 1.324-2.501 1.437-.736.152-1.655.038-2.317-.264-.589-.303-1.398-1.06-1.84-1.741-.404-.643-1.323-2.27-2.022-3.557-.699-1.286-2.06-3.254-3.016-4.351-.993-1.135-1.876-2.497-1.986-3.065-.147-.643-.037-1.438.257-1.968.295-.491 1.177-1.248 1.986-1.702.81-.416 1.986-.87 2.575-1.06.589-.151 2.575-.227 4.414-.151zm28.504 3.254c.625 0 1.36.265 1.655.568.368.378.552 1.362.552 3.216 0 2.194-.148 2.8-.81 3.632-.625.757-1.066.946-1.655.757-.478-.114-1.103-.757-1.397-1.362-.294-.606-.552-2.043-.589-3.14-.037-1.287.184-2.271.589-2.838.367-.53.993-.833 1.655-.833zM55.012 54.49c.331 0 1.508 1.476 2.722 3.405 1.14 1.854 1.986 3.444 1.876 3.557-.11.114-2.354.152-9.71 0l2.244-3.48c1.36-2.12 2.5-3.52 2.868-3.482z"
    fill="#201918" />
  <path
    d="M39.821 47.83c-.331.303-.699 1.023-.81 1.628-.146.567-.146 1.778-.036 2.724.147 1.06.552 2.043 1.067 2.573.699.757.993.833 1.692.492.441-.227.993-.832 1.177-1.362.183-.53.367-1.854.367-2.951 0-1.136-.22-2.346-.551-2.838-.331-.492-.92-.833-1.435-.833s-1.177.265-1.47.568z"
    fill="#FBFBFB" />
</svg>
